<?xml version="1.0" encoding="utf-8" standalone="no"?>
<!DOCTYPE svg PUBLIC "-//W3C//DTD SVG 1.1//EN"
  "http://www.w3.org/Graphics/SVG/1.1/DTD/svg11.dtd">
<!-- Created with matplotlib (https://matplotlib.org/) -->
<svg height="504pt" version="1.1" viewBox="0 0 648 504" width="648pt" xmlns="http://www.w3.org/2000/svg" xmlns:xlink="http://www.w3.org/1999/xlink">
 <defs>
  <style type="text/css">
*{stroke-linecap:butt;stroke-linejoin:round;}
  </style>
 </defs>
 <g id="figure_1">
  <g id="patch_1">
   <path d="M 0 504 
L 648 504 
L 648 0 
L 0 0 
z
" style="fill:#ffffff;"/>
  </g>
  <g id="axes_1">
   <g id="patch_2">
    <path d="M 81 441 
L 583.2 441 
L 583.2 60.48 
L 81 60.48 
z
" style="fill:#ffffff;"/>
   </g>
   <g id="matplotlib.axis_1">
    <g id="xtick_1">
     <g id="line2d_1">
      <defs>
       <path d="M 0 0 
L 0 3.5 
" id="md8da210063" style="stroke:#000000;stroke-width:0.8;"/>
      </defs>
      <g>
       <use style="stroke:#000000;stroke-width:0.8;" x="103.827273" xlink:href="#md8da210063" y="441"/>
      </g>
     </g>
     <g id="text_1">
      <!-- 0 -->
      <defs>
       <path d="M 26.09375 -1.296875 
C 38.796875 -1.296875 46.59375 10.90625 46.59375 36.5 
C 46.59375 61.796875 38.796875 73.90625 26.09375 73.90625 
C 13.203125 73.90625 5.5 61.796875 5.5 36.5 
C 5.5 10.90625 13.203125 -1.296875 26.09375 -1.296875 
z
M 26.09375 2 
C 15.796875 2 9.203125 14.203125 9.203125 36.5 
C 9.203125 58.5 15.796875 70.703125 26.09375 70.703125 
C 36.296875 70.703125 42.90625 58.5 42.90625 36.5 
C 42.90625 14.203125 36.296875 2 26.09375 2 
z
" id="NotoSansCJKjp-Thin-48"/>
      </defs>
      <g transform="translate(98.617898 463.88125)scale(0.2 -0.2)">
       <use xlink:href="#NotoSansCJKjp-Thin-48"/>
      </g>
     </g>
    </g>
    <g id="xtick_2">
     <g id="line2d_2">
      <g>
       <use style="stroke:#000000;stroke-width:0.8;" x="202.22069" xlink:href="#md8da210063" y="441"/>
      </g>
     </g>
     <g id="text_2">
      <!-- 500 -->
      <defs>
       <path d="M 24.703125 -1.296875 
C 35.703125 -1.296875 46.796875 7.5 46.796875 23.09375 
C 46.796875 39.296875 37.296875 46.40625 25.40625 46.40625 
C 20 46.40625 16 44.90625 12.296875 42.59375 
L 14.703125 69.296875 
L 43.09375 69.296875 
L 43.09375 72.59375 
L 11.40625 72.59375 
L 8.796875 40 
L 11.796875 38.203125 
C 15.90625 41 19.703125 43 25.09375 43 
C 36 43 43 35.296875 43 22.90625 
C 43 10.40625 34.5 2 24.90625 2 
C 14.796875 2 9.296875 6.40625 5.203125 10.796875 
L 2.90625 8.09375 
C 7.296875 3.703125 13.5 -1.296875 24.703125 -1.296875 
z
" id="NotoSansCJKjp-Thin-53"/>
      </defs>
      <g transform="translate(186.592565 463.88125)scale(0.2 -0.2)">
       <use xlink:href="#NotoSansCJKjp-Thin-53"/>
       <use x="52.099991" xlink:href="#NotoSansCJKjp-Thin-48"/>
       <use x="104.199982" xlink:href="#NotoSansCJKjp-Thin-48"/>
      </g>
     </g>
    </g>
    <g id="xtick_3">
     <g id="line2d_3">
      <g>
       <use style="stroke:#000000;stroke-width:0.8;" x="300.614107" xlink:href="#md8da210063" y="441"/>
      </g>
     </g>
     <g id="text_3">
      <!-- 1000 -->
      <defs>
       <path d="M 9.5 0 
L 45.296875 0 
L 45.296875 3.296875 
L 29.703125 3.296875 
L 29.703125 72.59375 
L 26.59375 72.59375 
C 23.5 70.796875 19.09375 69.296875 13.5 68.40625 
L 13.5 65.796875 
L 26.203125 65.796875 
L 26.203125 3.296875 
L 9.5 3.296875 
z
" id="NotoSansCJKjp-Thin-49"/>
      </defs>
      <g transform="translate(279.776607 463.88125)scale(0.2 -0.2)">
       <use xlink:href="#NotoSansCJKjp-Thin-49"/>
       <use x="52.099991" xlink:href="#NotoSansCJKjp-Thin-48"/>
       <use x="104.199982" xlink:href="#NotoSansCJKjp-Thin-48"/>
       <use x="156.299973" xlink:href="#NotoSansCJKjp-Thin-48"/>
      </g>
     </g>
    </g>
    <g id="xtick_4">
     <g id="line2d_4">
      <g>
       <use style="stroke:#000000;stroke-width:0.8;" x="399.007524" xlink:href="#md8da210063" y="441"/>
      </g>
     </g>
     <g id="text_4">
      <!-- 1500 -->
      <g transform="translate(378.170024 463.88125)scale(0.2 -0.2)">
       <use xlink:href="#NotoSansCJKjp-Thin-49"/>
       <use x="52.099991" xlink:href="#NotoSansCJKjp-Thin-53"/>
       <use x="104.199982" xlink:href="#NotoSansCJKjp-Thin-48"/>
       <use x="156.299973" xlink:href="#NotoSansCJKjp-Thin-48"/>
      </g>
     </g>
    </g>
    <g id="xtick_5">
     <g id="line2d_5">
      <g>
       <use style="stroke:#000000;stroke-width:0.8;" x="497.40094" xlink:href="#md8da210063" y="441"/>
      </g>
     </g>
     <g id="text_5">
      <!-- 2000 -->
      <defs>
       <path d="M 4.59375 0 
L 47.09375 0 
L 47.09375 3.296875 
L 22.5 3.296875 
C 18.59375 3.296875 14.59375 3.09375 10.59375 2.796875 
C 31.59375 22.203125 43.5 37.59375 43.5 53.5 
C 43.5 65.796875 36.40625 73.90625 24.09375 73.90625 
C 15.59375 73.90625 9.5 69.296875 4.40625 63.59375 
L 6.90625 61.296875 
C 11.296875 66.796875 17.296875 70.59375 23.796875 70.59375 
C 34.90625 70.59375 39.703125 62.90625 39.703125 53.5 
C 39.703125 39.796875 30.40625 24.40625 4.59375 2.296875 
z
" id="NotoSansCJKjp-Thin-50"/>
      </defs>
      <g transform="translate(476.56344 463.88125)scale(0.2 -0.2)">
       <use xlink:href="#NotoSansCJKjp-Thin-50"/>
       <use x="52.099991" xlink:href="#NotoSansCJKjp-Thin-48"/>
       <use x="104.199982" xlink:href="#NotoSansCJKjp-Thin-48"/>
       <use x="156.299973" xlink:href="#NotoSansCJKjp-Thin-48"/>
      </g>
     </g>
    </g>
    <g id="text_6">
     <!-- Step -->
     <defs>
      <path d="M 29.5 -1.296875 
C 43.203125 -1.296875 52.203125 6.796875 52.203125 17.90625 
C 52.203125 29.09375 45 33.40625 36.796875 37.09375 
L 25.703125 42.09375 
C 20.59375 44.40625 13 47.703125 13 56.796875 
C 13 65 19.703125 70.40625 29.796875 70.40625 
C 37.203125 70.40625 43.09375 67.296875 47.296875 62.796875 
L 49.59375 65.296875 
C 45.40625 69.90625 38.59375 73.90625 29.796875 73.90625 
C 18 73.90625 9.203125 66.90625 9.203125 56.40625 
C 9.203125 45.703125 17.703125 41.40625 24 38.59375 
L 35.09375 33.59375 
C 42.40625 30.296875 48.5 27.296875 48.5 17.59375 
C 48.5 8.5 41.09375 2.203125 29.5 2.203125 
C 20.796875 2.203125 13.09375 6.09375 7.796875 12.296875 
L 5.296875 9.703125 
C 10.796875 3.296875 18.796875 -1.296875 29.5 -1.296875 
z
" id="NotoSansCJKjp-Thin-83"/>
      <path d="M 24.09375 -1.296875 
C 25.90625 -1.296875 29.203125 -0.40625 32.296875 0.703125 
L 31.09375 3.703125 
C 29.203125 2.796875 26.40625 2 24.40625 2 
C 16.703125 2 15.203125 6.703125 15.203125 13.5 
L 15.203125 49.40625 
L 30.796875 49.40625 
L 30.796875 52.703125 
L 15.203125 52.703125 
L 15.203125 68.09375 
L 12.09375 68.09375 
L 11.703125 52.703125 
L 3.296875 52.203125 
L 3.296875 49.40625 
L 11.703125 49.40625 
L 11.703125 14 
C 11.703125 4.796875 14.296875 -1.296875 24.09375 -1.296875 
z
" id="NotoSansCJKjp-Thin-116"/>
      <path d="M 30 -1.296875 
C 37.796875 -1.296875 42.296875 1.296875 46.296875 3.703125 
L 44.703125 6.796875 
C 40.703125 3.90625 36.203125 2 30.203125 2 
C 17.796875 2 9.703125 12.203125 9.703125 26.09375 
L 48.296875 26.09375 
C 48.5 27.40625 48.5 28.59375 48.5 29.703125 
C 48.5 45.296875 40.796875 54 28.59375 54 
C 16.90625 54 5.90625 43.40625 5.90625 26.203125 
C 5.90625 9 16.703125 -1.296875 30 -1.296875 
z
M 9.703125 29.40625 
C 10.796875 42.703125 19.203125 50.703125 28.59375 50.703125 
C 38.5 50.703125 45 43.703125 45 29.40625 
z
" id="NotoSansCJKjp-Thin-101"/>
      <path d="M 14.09375 41.59375 
C 20.796875 47.40625 26.703125 50.703125 32.09375 50.703125 
C 45 50.703125 49.796875 40.5 49.796875 27.09375 
C 49.796875 12.40625 41.703125 2 30.5 2 
C 26.296875 2 20.296875 3.90625 14.09375 9.09375 
z
M 10.5 -24.296875 
L 14.09375 -24.296875 
L 14.09375 5.296875 
C 19.703125 1.09375 25.203125 -1.296875 30.203125 -1.296875 
C 42.796875 -1.296875 53.59375 9.203125 53.59375 27.09375 
C 53.59375 43.40625 46.703125 54 32.40625 54 
C 25.796875 54 19.5 50 14.296875 45.90625 
L 14.09375 45.90625 
L 13.5 52.703125 
L 10.5 52.703125 
z
" id="NotoSansCJKjp-Thin-112"/>
     </defs>
     <g transform="translate(311.848438 488.621875)scale(0.2 -0.2)">
      <use xlink:href="#NotoSansCJKjp-Thin-83"/>
      <use x="56.899994" xlink:href="#NotoSansCJKjp-Thin-116"/>
      <use x="90.299988" xlink:href="#NotoSansCJKjp-Thin-101"/>
      <use x="142.999985" xlink:href="#NotoSansCJKjp-Thin-112"/>
     </g>
    </g>
   </g>
   <g id="matplotlib.axis_2">
    <g id="ytick_1">
     <g id="line2d_6">
      <defs>
       <path d="M 0 0 
L -3.5 0 
" id="mefe2d75c9e" style="stroke:#000000;stroke-width:0.8;"/>
      </defs>
      <g>
       <use style="stroke:#000000;stroke-width:0.8;" x="81" xlink:href="#mefe2d75c9e" y="407.252405"/>
      </g>
     </g>
     <g id="text_7">
      <!-- 0.1 -->
      <defs>
       <path d="M 11.5 -1.296875 
C 13.59375 -1.296875 15.59375 0.296875 15.59375 3 
C 15.59375 5.90625 13.59375 7.5 11.5 7.5 
C 9.5 7.5 7.5 5.90625 7.5 3 
C 7.5 0.296875 9.5 -1.296875 11.5 -1.296875 
z
" id="NotoSansCJKjp-Thin-46"/>
      </defs>
      <g transform="translate(48.54375 415.19303)scale(0.2 -0.2)">
       <use xlink:href="#NotoSansCJKjp-Thin-48"/>
       <use x="52.099991" xlink:href="#NotoSansCJKjp-Thin-46"/>
       <use x="75.199982" xlink:href="#NotoSansCJKjp-Thin-49"/>
      </g>
     </g>
    </g>
    <g id="ytick_2">
     <g id="line2d_7">
      <g>
       <use style="stroke:#000000;stroke-width:0.8;" x="81" xlink:href="#mefe2d75c9e" y="357.09621"/>
      </g>
     </g>
     <g id="text_8">
      <!-- 0.2 -->
      <g transform="translate(48.54375 365.036835)scale(0.2 -0.2)">
       <use xlink:href="#NotoSansCJKjp-Thin-48"/>
       <use x="52.099991" xlink:href="#NotoSansCJKjp-Thin-46"/>
       <use x="75.199982" xlink:href="#NotoSansCJKjp-Thin-50"/>
      </g>
     </g>
    </g>
    <g id="ytick_3">
     <g id="line2d_8">
      <g>
       <use style="stroke:#000000;stroke-width:0.8;" x="81" xlink:href="#mefe2d75c9e" y="306.940016"/>
      </g>
     </g>
     <g id="text_9">
      <!-- 0.3 -->
      <defs>
       <path d="M 25.296875 -1.296875 
C 37.296875 -1.296875 46.40625 6.59375 46.40625 19.09375 
C 46.40625 29.5 38.90625 36.296875 30.09375 38.09375 
L 30.09375 38.5 
C 37.796875 41 43.796875 47 43.796875 56.90625 
C 43.796875 67.703125 35.5 73.90625 25.09375 74 
C 16.90625 73.90625 11 70 6.40625 65.5 
L 8.703125 62.90625 
C 12.59375 67.203125 18.59375 70.59375 25.09375 70.796875 
C 34.09375 70.59375 39.90625 65 39.90625 56.703125 
C 39.90625 47.40625 34.09375 39.90625 17.40625 39.90625 
L 17.40625 36.40625 
C 35.203125 36.40625 42.59375 29.296875 42.59375 18.90625 
C 42.59375 8.703125 35.40625 2 25.5 2 
C 15.5 2 9.796875 6.59375 5.59375 11.203125 
L 3.296875 8.59375 
C 7.703125 4 14.09375 -1.296875 25.296875 -1.296875 
z
" id="NotoSansCJKjp-Thin-51"/>
      </defs>
      <g transform="translate(48.54375 314.880641)scale(0.2 -0.2)">
       <use xlink:href="#NotoSansCJKjp-Thin-48"/>
       <use x="52.099991" xlink:href="#NotoSansCJKjp-Thin-46"/>
       <use x="75.199982" xlink:href="#NotoSansCJKjp-Thin-51"/>
      </g>
     </g>
    </g>
    <g id="ytick_4">
     <g id="line2d_9">
      <g>
       <use style="stroke:#000000;stroke-width:0.8;" x="81" xlink:href="#mefe2d75c9e" y="256.783821"/>
      </g>
     </g>
     <g id="text_10">
      <!-- 0.4 -->
      <defs>
       <path d="M 6.59375 24.5 
L 28.59375 56.09375 
C 30.59375 59.296875 32.59375 62.59375 34.296875 65.703125 
L 34.796875 65.703125 
C 34.5 62.59375 34.296875 57.40625 34.296875 54.40625 
L 34.296875 24.5 
z
M 48.59375 24.5 
L 37.796875 24.5 
L 37.796875 72.59375 
L 35.296875 72.59375 
L 1.796875 23.203125 
L 1.796875 21.296875 
L 34.296875 21.296875 
L 34.296875 0 
L 37.796875 0 
L 37.796875 21.296875 
L 48.59375 21.296875 
z
" id="NotoSansCJKjp-Thin-52"/>
      </defs>
      <g transform="translate(48.54375 264.724446)scale(0.2 -0.2)">
       <use xlink:href="#NotoSansCJKjp-Thin-48"/>
       <use x="52.099991" xlink:href="#NotoSansCJKjp-Thin-46"/>
       <use x="75.199982" xlink:href="#NotoSansCJKjp-Thin-52"/>
      </g>
     </g>
    </g>
    <g id="ytick_5">
     <g id="line2d_10">
      <g>
       <use style="stroke:#000000;stroke-width:0.8;" x="81" xlink:href="#mefe2d75c9e" y="206.627627"/>
      </g>
     </g>
     <g id="text_11">
      <!-- 0.5 -->
      <g transform="translate(48.54375 214.568252)scale(0.2 -0.2)">
       <use xlink:href="#NotoSansCJKjp-Thin-48"/>
       <use x="52.099991" xlink:href="#NotoSansCJKjp-Thin-46"/>
       <use x="75.199982" xlink:href="#NotoSansCJKjp-Thin-53"/>
      </g>
     </g>
    </g>
    <g id="ytick_6">
     <g id="line2d_11">
      <g>
       <use style="stroke:#000000;stroke-width:0.8;" x="81" xlink:href="#mefe2d75c9e" y="156.471433"/>
      </g>
     </g>
     <g id="text_12">
      <!-- 0.6 -->
      <defs>
       <path d="M 28.90625 2 
C 16.5 2 10.703125 13.796875 10 30.296875 
C 15.90625 38.203125 22.703125 41.296875 27.796875 41.296875 
C 39.203125 41.296875 43.703125 32.703125 43.703125 21.59375 
C 43.703125 10.703125 37.40625 2 28.90625 2 
z
M 46 67.296875 
C 42.40625 71.296875 37.90625 73.90625 31.703125 73.90625 
C 18.296875 73.90625 6.203125 63.796875 6.203125 33.90625 
C 6.203125 11.59375 14.59375 -1.296875 28.703125 -1.296875 
C 38.796875 -1.296875 47.5 8.40625 47.5 21.59375 
C 47.5 36.5 40.40625 44.40625 28 44.40625 
C 21.296875 44.40625 14.90625 40.703125 9.90625 34.59375 
C 10.09375 61.5 20 70.59375 31.59375 70.59375 
C 36.203125 70.59375 40.5 68.703125 43.59375 64.796875 
z
" id="NotoSansCJKjp-Thin-54"/>
      </defs>
      <g transform="translate(48.54375 164.412058)scale(0.2 -0.2)">
       <use xlink:href="#NotoSansCJKjp-Thin-48"/>
       <use x="52.099991" xlink:href="#NotoSansCJKjp-Thin-46"/>
       <use x="75.199982" xlink:href="#NotoSansCJKjp-Thin-54"/>
      </g>
     </g>
    </g>
    <g id="ytick_7">
     <g id="line2d_12">
      <g>
       <use style="stroke:#000000;stroke-width:0.8;" x="81" xlink:href="#mefe2d75c9e" y="106.315238"/>
      </g>
     </g>
     <g id="text_13">
      <!-- 0.7 -->
      <defs>
       <path d="M 21 0 
L 25.09375 0 
C 26.203125 28.40625 30.203125 47.40625 47.5 70.5 
L 47.5 72.59375 
L 4.796875 72.59375 
L 4.796875 69.296875 
L 42.59375 69.296875 
C 28 48.90625 22.203125 29.90625 21 0 
z
" id="NotoSansCJKjp-Thin-55"/>
      </defs>
      <g transform="translate(48.54375 114.255863)scale(0.2 -0.2)">
       <use xlink:href="#NotoSansCJKjp-Thin-48"/>
       <use x="52.099991" xlink:href="#NotoSansCJKjp-Thin-46"/>
       <use x="75.199982" xlink:href="#NotoSansCJKjp-Thin-55"/>
      </g>
     </g>
    </g>
    <g id="text_14">
     <!-- 准确率 -->
     <defs>
      <path d="M 28.203125 61.296875 
C 24.5 65.703125 16.796875 71.90625 10.203125 76.40625 
L 8.09375 74.40625 
C 14.703125 70 22.40625 63.40625 26.09375 59 
z
M 7.296875 1.40625 
C 13.09375 9.40625 20.703125 21.40625 26.296875 31 
L 24 32.796875 
C 18.203125 22.796875 10.09375 10.5 4.59375 3.40625 
z
M 43.5 19.09375 
L 64.90625 19.09375 
L 64.90625 1.40625 
L 43.5 1.40625 
z
M 64.90625 59.703125 
L 64.90625 42.40625 
L 43.5 42.40625 
L 43.5 59.703125 
z
M 64.90625 22.09375 
L 43.5 22.09375 
L 43.5 39.5 
L 64.90625 39.5 
z
M 95 1.40625 
L 67.796875 1.40625 
L 67.796875 19.09375 
L 90.09375 19.09375 
L 90.09375 22.09375 
L 67.796875 22.09375 
L 67.796875 39.5 
L 90.09375 39.5 
L 90.09375 42.40625 
L 67.796875 42.40625 
L 67.796875 59.703125 
L 92.09375 59.703125 
L 92.09375 62.59375 
L 68 62.59375 
C 70.296875 68.09375 72.796875 75.59375 74.796875 81.59375 
L 71.796875 82.796875 
C 70.296875 77 67.5 68.203125 65.296875 62.59375 
L 43.40625 62.59375 
C 46.5 68.796875 49.296875 75.5 51.5 82.40625 
L 48.5 83.09375 
C 43.59375 67.40625 35.796875 52.40625 26.296875 42.5 
C 27.09375 42.203125 28.40625 41.203125 28.90625 40.703125 
C 33.09375 45.296875 37.09375 51 40.59375 57.296875 
L 40.59375 -7 
L 43.5 -7 
L 43.5 -1.59375 
L 95 -1.59375 
z
" id="NotoSansCJKjp-Thin-20934"/>
      <path d="M 34.703125 45.09375 
L 34.703125 11.296875 
L 16.59375 11.296875 
L 16.59375 45.09375 
z
M 37.703125 8.296875 
L 37.703125 48 
L 16.59375 48 
C 19 56.09375 20.90625 64.90625 22.40625 74.296875 
L 41.703125 74.296875 
L 41.703125 77.203125 
L 5.40625 77.203125 
L 5.40625 74.296875 
L 19.296875 74.296875 
C 16.5 55.59375 11.796875 38.203125 3.796875 26.796875 
C 4.59375 26.296875 6 25.296875 6.5 24.90625 
C 9.203125 29.09375 11.5 34 13.59375 39.296875 
L 13.59375 -1 
L 16.59375 -1 
L 16.59375 8.296875 
z
M 70.59375 21.09375 
L 70.59375 37.203125 
L 88.5 37.203125 
L 88.5 21.09375 
z
M 50.5 37.203125 
L 67.59375 37.203125 
L 67.59375 21.09375 
L 50.09375 21.09375 
C 50.40625 24 50.5 26.796875 50.5 29.40625 
z
M 76.703125 71.703125 
C 74.703125 67 71.59375 61.5 68.796875 57.796875 
L 49.90625 57.796875 
C 52.90625 62 55.703125 66.703125 58.203125 71.703125 
z
M 50.5 54.90625 
L 67.59375 54.90625 
L 67.59375 40.09375 
L 50.5 40.09375 
z
M 88.5 40.09375 
L 70.59375 40.09375 
L 70.59375 54.90625 
L 88.5 54.90625 
z
M 91.5 57.796875 
L 72.09375 57.796875 
C 75.09375 62.09375 78.59375 67.90625 80.90625 73.40625 
L 78.796875 74.796875 
L 78.296875 74.59375 
L 59.59375 74.59375 
C 60.796875 77.09375 61.90625 79.703125 62.90625 82.296875 
L 60 83.09375 
C 55.5 70.703125 48 58.59375 39.703125 50.703125 
C 40.5 50.203125 41.796875 49.09375 42.296875 48.59375 
C 44.09375 50.40625 45.796875 52.40625 47.5 54.59375 
L 47.5 29.40625 
C 47.5 18.296875 46.203125 4.703125 35.703125 -5.09375 
C 36.40625 -5.5 37.5 -6.5 37.796875 -7.203125 
C 45.40625 -0.09375 48.59375 9.203125 49.796875 18.09375 
L 88.5 18.09375 
L 88.5 -2.5 
C 88.5 -3.90625 88.09375 -4.296875 86.703125 -4.40625 
C 85.296875 -4.5 80.40625 -4.5 74.5 -4.296875 
C 75 -5.296875 75.5 -6.5 75.703125 -7.40625 
C 82.40625 -7.40625 86.703125 -7.40625 88.796875 -6.796875 
C 90.796875 -6.296875 91.5 -5.09375 91.5 -2.40625 
z
" id="NotoSansCJKjp-Thin-30830"/>
      <path d="M 94 27.09375 
C 88.40625 31.40625 77.703125 37.59375 69.09375 41.703125 
L 66.796875 39.703125 
C 75.5 35.5 86.296875 29.09375 91.59375 24.703125 
z
M 86 63.09375 
C 81.703125 59.203125 73.90625 53.703125 68.40625 50.40625 
L 70.59375 48.59375 
C 76.203125 52 83.296875 56.703125 88.40625 61.40625 
z
M 30.796875 54.09375 
C 36.203125 50.796875 42.5 46 46.203125 42.40625 
C 42.703125 38.40625 39 34.59375 35.796875 31.5 
L 29.203125 31.203125 
L 29.703125 28 
C 39.40625 28.59375 52.5 29.40625 65.796875 30.40625 
C 67.40625 28.203125 68.796875 26 69.796875 24.203125 
L 72.296875 26 
C 69.59375 31 63.296875 38.5 57.703125 44 
L 55.296875 42.5 
C 58.203125 39.703125 61.203125 36.296875 63.90625 32.90625 
L 39.59375 31.703125 
C 47.296875 39.203125 56.40625 49.59375 62.703125 58 
L 60.09375 59.59375 
C 57 55.203125 52.703125 49.796875 48.203125 44.59375 
C 45.703125 47 41.796875 50 37.90625 52.703125 
C 41.5 56.5 45.59375 61.703125 48.796875 66.203125 
L 46.59375 67.296875 
L 91.59375 67.296875 
L 91.59375 70.296875 
L 51.203125 70.296875 
L 51.203125 83.09375 
L 48.203125 83.09375 
L 48.203125 70.296875 
L 8.59375 70.296875 
L 8.59375 67.296875 
L 45.796875 67.296875 
C 43.296875 63.5 39.09375 58 35.703125 54.09375 
C 34.703125 54.796875 33.703125 55.40625 32.796875 56 
z
M 28.703125 50.203125 
C 25.203125 53.5 18.09375 58.203125 12.296875 61.296875 
L 10.203125 59.40625 
C 16.09375 56.203125 23.09375 51.40625 26.703125 48 
z
M 31.296875 40.09375 
C 22 35.90625 12.59375 31.59375 6.203125 28.90625 
L 8 26.40625 
C 14.796875 29.5 23.5 33.59375 32 37.5 
z
M 94.203125 18.203125 
L 51.203125 18.203125 
L 51.203125 27.296875 
L 48.203125 27.296875 
L 48.203125 18.203125 
L 5.90625 18.203125 
L 5.90625 15.296875 
L 48.203125 15.296875 
L 48.203125 -7.59375 
L 51.203125 -7.59375 
L 51.203125 15.296875 
L 94.203125 15.296875 
z
" id="NotoSansCJKjp-Thin-29575"/>
     </defs>
     <g transform="translate(39.684375 280.74)rotate(-90)scale(0.2 -0.2)">
      <use xlink:href="#NotoSansCJKjp-Thin-20934"/>
      <use x="99.999985" xlink:href="#NotoSansCJKjp-Thin-30830"/>
      <use x="199.999969" xlink:href="#NotoSansCJKjp-Thin-29575"/>
     </g>
    </g>
   </g>
   <g id="line2d_13">
    <path clip-path="url(#p8c0c99d891)" d="M 103.827273 423.703636 
L 119.570219 372.845255 
L 135.313166 321.886562 
L 151.056113 283.115823 
L 166.79906 254.025231 
L 182.542006 230.451819 
L 198.284953 212.846995 
L 214.0279 196.395763 
L 229.770846 182.703122 
L 245.513793 171.117041 
L 261.25674 161.787989 
L 276.999687 152.609406 
L 292.742633 144.333634 
L 308.48558 137.462235 
L 324.228527 131.142554 
L 339.971473 126.427872 
L 355.71442 121.011003 
L 371.457367 116.346477 
L 387.200313 112.133357 
L 402.94326 107.769768 
L 418.686207 104.359147 
L 434.429154 100.547276 
L 450.1721 97.487748 
L 465.915047 93.876502 
L 481.657994 90.816974 
L 497.40094 88.409477 
L 513.143887 85.951823 
L 528.886834 82.942452 
L 544.629781 80.635267 
L 560.372727 77.776364 
" style="fill:none;stroke:#ff7f0e;stroke-linecap:square;stroke-width:1.5;"/>
    <defs>
     <path d="M -3 3 
L 3 3 
L 3 -3 
L -3 -3 
z
" id="mdb2bcb949a" style="stroke:#ff7f0e;stroke-linejoin:miter;"/>
    </defs>
    <g clip-path="url(#p8c0c99d891)">
     <use style="fill:#ff7f0e;stroke:#ff7f0e;stroke-linejoin:miter;" x="103.827273" xlink:href="#mdb2bcb949a" y="423.703636"/>
     <use style="fill:#ff7f0e;stroke:#ff7f0e;stroke-linejoin:miter;" x="119.570219" xlink:href="#mdb2bcb949a" y="372.845255"/>
     <use style="fill:#ff7f0e;stroke:#ff7f0e;stroke-linejoin:miter;" x="135.313166" xlink:href="#mdb2bcb949a" y="321.886562"/>
     <use style="fill:#ff7f0e;stroke:#ff7f0e;stroke-linejoin:miter;" x="151.056113" xlink:href="#mdb2bcb949a" y="283.115823"/>
     <use style="fill:#ff7f0e;stroke:#ff7f0e;stroke-linejoin:miter;" x="166.79906" xlink:href="#mdb2bcb949a" y="254.025231"/>
     <use style="fill:#ff7f0e;stroke:#ff7f0e;stroke-linejoin:miter;" x="182.542006" xlink:href="#mdb2bcb949a" y="230.451819"/>
     <use style="fill:#ff7f0e;stroke:#ff7f0e;stroke-linejoin:miter;" x="198.284953" xlink:href="#mdb2bcb949a" y="212.846995"/>
     <use style="fill:#ff7f0e;stroke:#ff7f0e;stroke-linejoin:miter;" x="214.0279" xlink:href="#mdb2bcb949a" y="196.395763"/>
     <use style="fill:#ff7f0e;stroke:#ff7f0e;stroke-linejoin:miter;" x="229.770846" xlink:href="#mdb2bcb949a" y="182.703122"/>
     <use style="fill:#ff7f0e;stroke:#ff7f0e;stroke-linejoin:miter;" x="245.513793" xlink:href="#mdb2bcb949a" y="171.117041"/>
     <use style="fill:#ff7f0e;stroke:#ff7f0e;stroke-linejoin:miter;" x="261.25674" xlink:href="#mdb2bcb949a" y="161.787989"/>
     <use style="fill:#ff7f0e;stroke:#ff7f0e;stroke-linejoin:miter;" x="276.999687" xlink:href="#mdb2bcb949a" y="152.609406"/>
     <use style="fill:#ff7f0e;stroke:#ff7f0e;stroke-linejoin:miter;" x="292.742633" xlink:href="#mdb2bcb949a" y="144.333634"/>
     <use style="fill:#ff7f0e;stroke:#ff7f0e;stroke-linejoin:miter;" x="308.48558" xlink:href="#mdb2bcb949a" y="137.462235"/>
     <use style="fill:#ff7f0e;stroke:#ff7f0e;stroke-linejoin:miter;" x="324.228527" xlink:href="#mdb2bcb949a" y="131.142554"/>
     <use style="fill:#ff7f0e;stroke:#ff7f0e;stroke-linejoin:miter;" x="339.971473" xlink:href="#mdb2bcb949a" y="126.427872"/>
     <use style="fill:#ff7f0e;stroke:#ff7f0e;stroke-linejoin:miter;" x="355.71442" xlink:href="#mdb2bcb949a" y="121.011003"/>
     <use style="fill:#ff7f0e;stroke:#ff7f0e;stroke-linejoin:miter;" x="371.457367" xlink:href="#mdb2bcb949a" y="116.346477"/>
     <use style="fill:#ff7f0e;stroke:#ff7f0e;stroke-linejoin:miter;" x="387.200313" xlink:href="#mdb2bcb949a" y="112.133357"/>
     <use style="fill:#ff7f0e;stroke:#ff7f0e;stroke-linejoin:miter;" x="402.94326" xlink:href="#mdb2bcb949a" y="107.769768"/>
     <use style="fill:#ff7f0e;stroke:#ff7f0e;stroke-linejoin:miter;" x="418.686207" xlink:href="#mdb2bcb949a" y="104.359147"/>
     <use style="fill:#ff7f0e;stroke:#ff7f0e;stroke-linejoin:miter;" x="434.429154" xlink:href="#mdb2bcb949a" y="100.547276"/>
     <use style="fill:#ff7f0e;stroke:#ff7f0e;stroke-linejoin:miter;" x="450.1721" xlink:href="#mdb2bcb949a" y="97.487748"/>
     <use style="fill:#ff7f0e;stroke:#ff7f0e;stroke-linejoin:miter;" x="465.915047" xlink:href="#mdb2bcb949a" y="93.876502"/>
     <use style="fill:#ff7f0e;stroke:#ff7f0e;stroke-linejoin:miter;" x="481.657994" xlink:href="#mdb2bcb949a" y="90.816974"/>
     <use style="fill:#ff7f0e;stroke:#ff7f0e;stroke-linejoin:miter;" x="497.40094" xlink:href="#mdb2bcb949a" y="88.409477"/>
     <use style="fill:#ff7f0e;stroke:#ff7f0e;stroke-linejoin:miter;" x="513.143887" xlink:href="#mdb2bcb949a" y="85.951823"/>
     <use style="fill:#ff7f0e;stroke:#ff7f0e;stroke-linejoin:miter;" x="528.886834" xlink:href="#mdb2bcb949a" y="82.942452"/>
     <use style="fill:#ff7f0e;stroke:#ff7f0e;stroke-linejoin:miter;" x="544.629781" xlink:href="#mdb2bcb949a" y="80.635267"/>
     <use style="fill:#ff7f0e;stroke:#ff7f0e;stroke-linejoin:miter;" x="560.372727" xlink:href="#mdb2bcb949a" y="77.776364"/>
    </g>
   </g>
   <g id="patch_3">
    <path d="M 81 441 
L 81 60.48 
" style="fill:none;stroke:#000000;stroke-linecap:square;stroke-linejoin:miter;stroke-width:0.8;"/>
   </g>
   <g id="patch_4">
    <path d="M 583.2 441 
L 583.2 60.48 
" style="fill:none;stroke:#000000;stroke-linecap:square;stroke-linejoin:miter;stroke-width:0.8;"/>
   </g>
   <g id="patch_5">
    <path d="M 81 441 
L 583.2 441 
" style="fill:none;stroke:#000000;stroke-linecap:square;stroke-linejoin:miter;stroke-width:0.8;"/>
   </g>
   <g id="patch_6">
    <path d="M 81 60.48 
L 583.2 60.48 
" style="fill:none;stroke:#000000;stroke-linecap:square;stroke-linejoin:miter;stroke-width:0.8;"/>
   </g>
   <g id="legend_1">
    <g id="patch_7">
     <path d="M 95 107.220625 
L 279 107.220625 
Q 283 107.220625 283 103.220625 
L 283 74.48 
Q 283 70.48 279 70.48 
L 95 70.48 
Q 91 70.48 91 74.48 
L 91 103.220625 
Q 91 107.220625 95 107.220625 
z
" style="fill:#ffffff;opacity:0.8;stroke:#cccccc;stroke-linejoin:miter;"/>
    </g>
    <g id="line2d_14">
     <path d="M 99 87.36125 
L 139 87.36125 
" style="fill:none;stroke:#ff7f0e;stroke-linecap:square;stroke-width:1.5;"/>
    </g>
    <g id="line2d_15">
     <g>
      <use style="fill:#ff7f0e;stroke:#ff7f0e;stroke-linejoin:miter;" x="119" xlink:href="#mdb2bcb949a" y="87.36125"/>
     </g>
    </g>
    <g id="text_15">
     <!-- 测试集准确率 -->
     <defs>
      <path d="M 49 10.40625 
C 54.59375 5.296875 61 -1.796875 64.09375 -6.296875 
L 66.203125 -4.5 
C 63.09375 -0.09375 56.703125 6.90625 51.09375 12 
z
M 31.90625 76.59375 
L 31.90625 16.796875 
L 34.796875 16.796875 
L 34.796875 73.703125 
L 60.796875 73.703125 
L 60.796875 16.796875 
L 63.703125 16.796875 
L 63.703125 76.59375 
z
M 88.796875 82.09375 
L 88.796875 -1.90625 
C 88.796875 -3.40625 88.203125 -3.90625 86.703125 -3.90625 
C 85.5 -4 80.796875 -4 75.203125 -3.90625 
C 75.703125 -4.796875 76.296875 -6 76.5 -6.703125 
C 83.296875 -6.796875 86.90625 -6.703125 88.90625 -6.203125 
C 90.703125 -5.59375 91.703125 -4.59375 91.703125 -1.796875 
L 91.703125 82.09375 
z
M 75.09375 74.203125 
L 75.09375 15.90625 
L 78 15.90625 
L 78 74.203125 
z
M 45.5 64.90625 
L 45.5 32.296875 
C 45.5 19.40625 43.203125 5.09375 25.5 -4.703125 
C 26.203125 -5.203125 27.203125 -6.09375 27.59375 -6.703125 
C 45.796875 3.40625 48.40625 18.90625 48.40625 32.296875 
L 48.40625 64.90625 
z
M 9.703125 79.703125 
C 15.296875 76.5 22.09375 71.703125 25.5 68.40625 
L 27.40625 70.796875 
C 24 74 17.09375 78.59375 11.5 81.703125 
z
M 4.90625 52.59375 
C 10.5 49.40625 17.59375 44.796875 21.296875 41.703125 
L 23 44.09375 
C 19.40625 47 12.296875 51.5 6.59375 54.59375 
z
M 7.203125 -3.796875 
L 9.90625 -5.59375 
C 14.296875 3 19.796875 16 23.796875 26.203125 
L 21.40625 28 
C 17.296875 17.203125 11.296875 3.90625 7.203125 -3.796875 
z
" id="NotoSansCJKjp-Thin-27979"/>
      <path d="M 91.40625 67.203125 
C 89 71.09375 83.703125 77.296875 79 81.703125 
L 76.703125 80.09375 
C 81.40625 75.59375 86.59375 69.296875 89.09375 65.203125 
z
M 30.09375 66.90625 
C 27.203125 70.5 21.5 76.296875 16.59375 80.40625 
L 14.296875 78.59375 
C 19.203125 74.40625 25 68.5 27.703125 64.703125 
z
M 24 4.203125 
L 24 51 
L 5.203125 51 
L 5.203125 48.09375 
L 21.09375 48.09375 
L 21.09375 6.40625 
C 21.09375 2.296875 18.203125 -0.203125 16.796875 -1.09375 
C 17.5 -1.703125 18.5 -2.90625 18.796875 -3.703125 
C 20.09375 -2.09375 22.09375 -0.703125 38.296875 10.59375 
C 38 11.203125 37.5 12.296875 37.203125 13 
z
M 53.203125 9.203125 
L 53.203125 37 
L 64.5 37 
L 64.5 39.90625 
L 37.5 39.90625 
L 37.5 37 
L 50.296875 37 
L 50.296875 8.40625 
C 44.703125 6.796875 39.59375 5.296875 35.59375 4.203125 
L 36.703125 1.203125 
C 44.90625 3.703125 56 6.90625 66.90625 10.09375 
L 66.5 13.09375 
z
M 95.09375 57.59375 
L 95.09375 60.5 
L 72 60.5 
C 71.59375 67.59375 71.296875 75 71.203125 82.703125 
L 68.296875 82.703125 
C 68.5 75.09375 68.796875 67.703125 69.203125 60.5 
L 34.203125 60.5 
L 34.203125 57.59375 
L 69.40625 57.59375 
C 71.40625 21.203125 76.09375 -6.703125 88.296875 -7.09375 
C 91.796875 -7.203125 94.09375 -2.5 95.5 11.703125 
C 94.703125 12 93.703125 12.5 93 13 
C 92.09375 2.5 90.40625 -3.796875 88.203125 -3.703125 
C 79.203125 -3.203125 74.203125 22.296875 72.09375 57.59375 
z
" id="NotoSansCJKjp-Thin-35797"/>
      <path d="M 21.59375 43 
L 49.40625 43 
L 49.40625 33.5 
L 21.59375 33.5 
z
M 49.40625 58.09375 
L 21.59375 58.09375 
L 21.59375 67.203125 
L 49.40625 67.203125 
z
M 49.40625 46 
L 21.59375 46 
L 21.59375 55.203125 
L 49.40625 55.203125 
z
M 94.203125 19.203125 
L 94.203125 22.203125 
L 51.296875 22.203125 
L 51.296875 30.59375 
L 91.5 30.59375 
L 91.5 33.5 
L 52.40625 33.5 
L 52.40625 43 
L 83.90625 43 
L 83.90625 46 
L 52.40625 46 
L 52.40625 55.203125 
L 83.40625 55.203125 
L 83.40625 58.09375 
L 52.40625 58.09375 
L 52.40625 67.203125 
L 86.59375 67.203125 
L 86.59375 70.203125 
L 50.703125 70.203125 
C 52.796875 73.703125 55 78.40625 57 82.40625 
L 53.703125 83.09375 
C 52.40625 79.40625 49.796875 73.90625 47.59375 70.203125 
L 23.40625 70.203125 
C 26.203125 74.59375 28.5 78.796875 30.40625 82.703125 
L 27.09375 83.203125 
C 22.796875 73.703125 14.59375 60.90625 3.40625 51.40625 
C 4.09375 51 5.203125 50.203125 5.796875 49.5 
C 10.703125 53.703125 14.90625 58.5 18.59375 63.40625 
L 18.59375 30.59375 
L 48.296875 30.59375 
L 48.296875 22.203125 
L 5.90625 22.203125 
L 5.90625 19.203125 
L 43.703125 19.203125 
C 34 9.90625 17.703125 1.296875 4.296875 -2.796875 
C 5.09375 -3.40625 6 -4.59375 6.59375 -5.5 
C 20.40625 -0.796875 38.09375 8.796875 47.90625 19.203125 
L 48.296875 19.203125 
L 48.296875 -7 
L 51.296875 -7 
L 51.296875 19.203125 
L 51.59375 19.203125 
C 61.296875 9.203125 79.40625 -0.09375 93.90625 -4.40625 
C 94.40625 -3.5 95.296875 -2.40625 96 -1.703125 
C 82.09375 2 65.5 10.09375 55.703125 19.203125 
z
" id="NotoSansCJKjp-Thin-38598"/>
     </defs>
     <g transform="translate(155 94.36125)scale(0.2 -0.2)">
      <use xlink:href="#NotoSansCJKjp-Thin-27979"/>
      <use x="99.999985" xlink:href="#NotoSansCJKjp-Thin-35797"/>
      <use x="199.999969" xlink:href="#NotoSansCJKjp-Thin-38598"/>
      <use x="299.999954" xlink:href="#NotoSansCJKjp-Thin-20934"/>
      <use x="399.999939" xlink:href="#NotoSansCJKjp-Thin-30830"/>
      <use x="499.999924" xlink:href="#NotoSansCJKjp-Thin-29575"/>
     </g>
    </g>
   </g>
  </g>
 </g>
 <defs>
  <clipPath id="p8c0c99d891">
   <rect height="380.52" width="502.2" x="81" y="60.48"/>
  </clipPath>
 </defs>
</svg>
