<?xml version="1.0" encoding="utf-8" standalone="no"?>
<!DOCTYPE svg PUBLIC "-//W3C//DTD SVG 1.1//EN"
  "http://www.w3.org/Graphics/SVG/1.1/DTD/svg11.dtd">
<!-- Created with matplotlib (https://matplotlib.org/) -->
<svg height="504pt" version="1.1" viewBox="0 0 648 504" width="648pt" xmlns="http://www.w3.org/2000/svg" xmlns:xlink="http://www.w3.org/1999/xlink">
 <defs>
  <style type="text/css">
*{stroke-linecap:butt;stroke-linejoin:round;}
  </style>
 </defs>
 <g id="figure_1">
  <g id="patch_1">
   <path d="M 0 504 
L 648 504 
L 648 0 
L 0 0 
z
" style="fill:#ffffff;"/>
  </g>
  <g id="axes_1">
   <g id="patch_2">
    <path d="M 81 441 
L 583.2 441 
L 583.2 60.48 
L 81 60.48 
z
" style="fill:#ffffff;"/>
   </g>
   <g id="matplotlib.axis_1">
    <g id="xtick_1">
     <g id="line2d_1">
      <defs>
       <path d="M 0 0 
L 0 3.5 
" id="me52bedbcb5" style="stroke:#000000;stroke-width:0.8;"/>
      </defs>
      <g>
       <use style="stroke:#000000;stroke-width:0.8;" x="103.827273" xlink:href="#me52bedbcb5" y="441"/>
      </g>
     </g>
     <g id="text_1">
      <!-- 0 -->
      <defs>
       <path d="M 26.09375 -1.296875 
C 38.796875 -1.296875 46.59375 10.90625 46.59375 36.5 
C 46.59375 61.796875 38.796875 73.90625 26.09375 73.90625 
C 13.203125 73.90625 5.5 61.796875 5.5 36.5 
C 5.5 10.90625 13.203125 -1.296875 26.09375 -1.296875 
z
M 26.09375 2 
C 15.796875 2 9.203125 14.203125 9.203125 36.5 
C 9.203125 58.5 15.796875 70.703125 26.09375 70.703125 
C 36.296875 70.703125 42.90625 58.5 42.90625 36.5 
C 42.90625 14.203125 36.296875 2 26.09375 2 
z
" id="NotoSansCJKjp-Thin-48"/>
      </defs>
      <g transform="translate(98.617898 463.88125)scale(0.2 -0.2)">
       <use xlink:href="#NotoSansCJKjp-Thin-48"/>
      </g>
     </g>
    </g>
    <g id="xtick_2">
     <g id="line2d_2">
      <g>
       <use style="stroke:#000000;stroke-width:0.8;" x="223.970813" xlink:href="#me52bedbcb5" y="441"/>
      </g>
     </g>
     <g id="text_2">
      <!-- 5 -->
      <defs>
       <path d="M 24.703125 -1.296875 
C 35.703125 -1.296875 46.796875 7.5 46.796875 23.09375 
C 46.796875 39.296875 37.296875 46.40625 25.40625 46.40625 
C 20 46.40625 16 44.90625 12.296875 42.59375 
L 14.703125 69.296875 
L 43.09375 69.296875 
L 43.09375 72.59375 
L 11.40625 72.59375 
L 8.796875 40 
L 11.796875 38.203125 
C 15.90625 41 19.703125 43 25.09375 43 
C 36 43 43 35.296875 43 22.90625 
C 43 10.40625 34.5 2 24.90625 2 
C 14.796875 2 9.296875 6.40625 5.203125 10.796875 
L 2.90625 8.09375 
C 7.296875 3.703125 13.5 -1.296875 24.703125 -1.296875 
z
" id="NotoSansCJKjp-Thin-53"/>
      </defs>
      <g transform="translate(218.761438 463.88125)scale(0.2 -0.2)">
       <use xlink:href="#NotoSansCJKjp-Thin-53"/>
      </g>
     </g>
    </g>
    <g id="xtick_3">
     <g id="line2d_3">
      <g>
       <use style="stroke:#000000;stroke-width:0.8;" x="344.114354" xlink:href="#me52bedbcb5" y="441"/>
      </g>
     </g>
     <g id="text_3">
      <!-- 10 -->
      <defs>
       <path d="M 9.5 0 
L 45.296875 0 
L 45.296875 3.296875 
L 29.703125 3.296875 
L 29.703125 72.59375 
L 26.59375 72.59375 
C 23.5 70.796875 19.09375 69.296875 13.5 68.40625 
L 13.5 65.796875 
L 26.203125 65.796875 
L 26.203125 3.296875 
L 9.5 3.296875 
z
" id="NotoSansCJKjp-Thin-49"/>
      </defs>
      <g transform="translate(333.695604 463.88125)scale(0.2 -0.2)">
       <use xlink:href="#NotoSansCJKjp-Thin-49"/>
       <use x="52.099991" xlink:href="#NotoSansCJKjp-Thin-48"/>
      </g>
     </g>
    </g>
    <g id="xtick_4">
     <g id="line2d_4">
      <g>
       <use style="stroke:#000000;stroke-width:0.8;" x="464.257895" xlink:href="#me52bedbcb5" y="441"/>
      </g>
     </g>
     <g id="text_4">
      <!-- 15 -->
      <g transform="translate(453.839145 463.88125)scale(0.2 -0.2)">
       <use xlink:href="#NotoSansCJKjp-Thin-49"/>
       <use x="52.099991" xlink:href="#NotoSansCJKjp-Thin-53"/>
      </g>
     </g>
    </g>
    <g id="text_5">
     <!-- Epoch -->
     <defs>
      <path d="M 11 0 
L 51.09375 0 
L 51.09375 3.296875 
L 14.703125 3.296875 
L 14.703125 37.09375 
L 44.296875 37.09375 
L 44.296875 40.40625 
L 14.703125 40.40625 
L 14.703125 69.296875 
L 50 69.296875 
L 50 72.59375 
L 11 72.59375 
z
" id="NotoSansCJKjp-Thin-69"/>
      <path d="M 14.09375 41.59375 
C 20.796875 47.40625 26.703125 50.703125 32.09375 50.703125 
C 45 50.703125 49.796875 40.5 49.796875 27.09375 
C 49.796875 12.40625 41.703125 2 30.5 2 
C 26.296875 2 20.296875 3.90625 14.09375 9.09375 
z
M 10.5 -24.296875 
L 14.09375 -24.296875 
L 14.09375 5.296875 
C 19.703125 1.09375 25.203125 -1.296875 30.203125 -1.296875 
C 42.796875 -1.296875 53.59375 9.203125 53.59375 27.09375 
C 53.59375 43.40625 46.703125 54 32.40625 54 
C 25.796875 54 19.5 50 14.296875 45.90625 
L 14.09375 45.90625 
L 13.5 52.703125 
L 10.5 52.703125 
z
" id="NotoSansCJKjp-Thin-112"/>
      <path d="M 29.296875 -1.296875 
C 41.90625 -1.296875 52.703125 8.796875 52.703125 26.203125 
C 52.703125 43.90625 41.90625 54 29.296875 54 
C 16.703125 54 5.90625 43.90625 5.90625 26.203125 
C 5.90625 8.796875 16.703125 -1.296875 29.296875 -1.296875 
z
M 29.296875 2 
C 18.09375 2 9.703125 11.796875 9.703125 26.203125 
C 9.703125 40.703125 18.09375 50.703125 29.296875 50.703125 
C 40.5 50.703125 49 40.703125 49 26.203125 
C 49 11.796875 40.5 2 29.296875 2 
z
" id="NotoSansCJKjp-Thin-111"/>
      <path d="M 29.5 -1.296875 
C 36.296875 -1.296875 41.90625 1.796875 46.296875 5.703125 
L 44.203125 8.296875 
C 40.5 4.796875 35.40625 2 29.59375 2 
C 17.59375 2 9.703125 11.796875 9.703125 26.203125 
C 9.703125 40.703125 18.5 50.703125 29.59375 50.703125 
C 35 50.703125 39.203125 48.09375 42.703125 44.796875 
L 45 47.40625 
C 41.5 50.703125 36.796875 54 29.59375 54 
C 16.90625 54 5.90625 43.90625 5.90625 26.203125 
C 5.90625 8.796875 16.09375 -1.296875 29.5 -1.296875 
z
" id="NotoSansCJKjp-Thin-99"/>
      <path d="M 10.5 0 
L 14.09375 0 
L 14.09375 40.296875 
C 20.796875 47.203125 25.59375 50.703125 32.09375 50.703125 
C 41.09375 50.703125 44.796875 45 44.796875 33.40625 
L 44.796875 0 
L 48.40625 0 
L 48.40625 33.90625 
C 48.40625 47.5 43.296875 54 32.5 54 
C 25.203125 54 19.703125 49.796875 14.09375 44.09375 
L 14.09375 79.40625 
L 10.5 79.40625 
z
" id="NotoSansCJKjp-Thin-104"/>
     </defs>
     <g transform="translate(304 488.621875)scale(0.2 -0.2)">
      <use xlink:href="#NotoSansCJKjp-Thin-69"/>
      <use x="56.199997" xlink:href="#NotoSansCJKjp-Thin-112"/>
      <use x="115.699982" xlink:href="#NotoSansCJKjp-Thin-111"/>
      <use x="174.299973" xlink:href="#NotoSansCJKjp-Thin-99"/>
      <use x="223.499969" xlink:href="#NotoSansCJKjp-Thin-104"/>
     </g>
    </g>
   </g>
   <g id="matplotlib.axis_2">
    <g id="ytick_1">
     <g id="line2d_5">
      <defs>
       <path d="M 0 0 
L -3.5 0 
" id="m39419d05cb" style="stroke:#000000;stroke-width:0.8;"/>
      </defs>
      <g>
       <use style="stroke:#000000;stroke-width:0.8;" x="81" xlink:href="#m39419d05cb" y="406.666741"/>
      </g>
     </g>
     <g id="text_6">
      <!-- 0.08 -->
      <defs>
       <path d="M 11.5 -1.296875 
C 13.59375 -1.296875 15.59375 0.296875 15.59375 3 
C 15.59375 5.90625 13.59375 7.5 11.5 7.5 
C 9.5 7.5 7.5 5.90625 7.5 3 
C 7.5 0.296875 9.5 -1.296875 11.5 -1.296875 
z
" id="NotoSansCJKjp-Thin-46"/>
       <path d="M 26.5 -1.296875 
C 39 -1.296875 47.5 6.796875 47.5 16.90625 
C 47.5 26.796875 41.203125 32 35.203125 35.703125 
L 35.203125 36.203125 
C 39.09375 39.5 45.203125 46.5 45.203125 54.59375 
C 45.203125 65.296875 38.40625 73.5 26.5 73.5 
C 16.5 73.5 8.59375 66.203125 8.59375 55.90625 
C 8.59375 48.296875 13.59375 42.90625 18.703125 39.59375 
L 18.703125 39.203125 
C 12.09375 35.59375 4.40625 28.203125 4.40625 18 
C 4.40625 7 13.59375 -1.296875 26.5 -1.296875 
z
M 31.796875 37.296875 
C 22.296875 41 12.296875 45.296875 12.296875 55.90625 
C 12.296875 64.09375 18.09375 70.296875 26.5 70.296875 
C 36.09375 70.296875 41.59375 63 41.59375 54.59375 
C 41.59375 48.09375 38.09375 42.296875 31.796875 37.296875 
z
M 26.5 2 
C 15.796875 2 8.09375 9.09375 8.09375 18 
C 8.09375 26.5 13.59375 33.09375 21.40625 37.5 
C 32.59375 33.09375 43.703125 28.90625 43.703125 16.90625 
C 43.703125 8.703125 37 2 26.5 2 
z
" id="NotoSansCJKjp-Thin-56"/>
      </defs>
      <g transform="translate(38.125 414.607366)scale(0.2 -0.2)">
       <use xlink:href="#NotoSansCJKjp-Thin-48"/>
       <use x="52.099991" xlink:href="#NotoSansCJKjp-Thin-46"/>
       <use x="75.199982" xlink:href="#NotoSansCJKjp-Thin-48"/>
       <use x="127.299973" xlink:href="#NotoSansCJKjp-Thin-56"/>
      </g>
     </g>
    </g>
    <g id="ytick_2">
     <g id="line2d_6">
      <g>
       <use style="stroke:#000000;stroke-width:0.8;" x="81" xlink:href="#m39419d05cb" y="356.160337"/>
      </g>
     </g>
     <g id="text_7">
      <!-- 0.09 -->
      <defs>
       <path d="M 24.296875 31.296875 
C 13.203125 31.296875 8.59375 40 8.59375 51 
C 8.59375 62 14.90625 70.703125 23.40625 70.703125 
C 36.203125 70.703125 42.09375 59 42.5 42.796875 
C 36.5 34.703125 29.90625 31.296875 24.296875 31.296875 
z
M 6.40625 5.296875 
C 10.09375 1.296875 14.703125 -1.296875 21.40625 -1.296875 
C 34.203125 -1.296875 46.203125 9.40625 46.203125 40.90625 
C 46.203125 61.90625 37.703125 73.90625 23.59375 73.90625 
C 13.40625 73.90625 4.796875 64.203125 4.796875 51 
C 4.796875 36.40625 11.90625 28.203125 24 28.203125 
C 31.296875 28.203125 37.40625 32.296875 42.5 38.09375 
C 41.796875 11.296875 32.203125 2 21.703125 2 
C 16.59375 2 12.203125 3.90625 8.703125 7.90625 
z
" id="NotoSansCJKjp-Thin-57"/>
      </defs>
      <g transform="translate(38.125 364.100962)scale(0.2 -0.2)">
       <use xlink:href="#NotoSansCJKjp-Thin-48"/>
       <use x="52.099991" xlink:href="#NotoSansCJKjp-Thin-46"/>
       <use x="75.199982" xlink:href="#NotoSansCJKjp-Thin-48"/>
       <use x="127.299973" xlink:href="#NotoSansCJKjp-Thin-57"/>
      </g>
     </g>
    </g>
    <g id="ytick_3">
     <g id="line2d_7">
      <g>
       <use style="stroke:#000000;stroke-width:0.8;" x="81" xlink:href="#m39419d05cb" y="305.653933"/>
      </g>
     </g>
     <g id="text_8">
      <!-- 0.10 -->
      <g transform="translate(38.125 313.594558)scale(0.2 -0.2)">
       <use xlink:href="#NotoSansCJKjp-Thin-48"/>
       <use x="52.099991" xlink:href="#NotoSansCJKjp-Thin-46"/>
       <use x="75.199982" xlink:href="#NotoSansCJKjp-Thin-49"/>
       <use x="127.299973" xlink:href="#NotoSansCJKjp-Thin-48"/>
      </g>
     </g>
    </g>
    <g id="ytick_4">
     <g id="line2d_8">
      <g>
       <use style="stroke:#000000;stroke-width:0.8;" x="81" xlink:href="#m39419d05cb" y="255.147529"/>
      </g>
     </g>
     <g id="text_9">
      <!-- 0.11 -->
      <g transform="translate(38.125 263.088154)scale(0.2 -0.2)">
       <use xlink:href="#NotoSansCJKjp-Thin-48"/>
       <use x="52.099991" xlink:href="#NotoSansCJKjp-Thin-46"/>
       <use x="75.199982" xlink:href="#NotoSansCJKjp-Thin-49"/>
       <use x="127.299973" xlink:href="#NotoSansCJKjp-Thin-49"/>
      </g>
     </g>
    </g>
    <g id="ytick_5">
     <g id="line2d_9">
      <g>
       <use style="stroke:#000000;stroke-width:0.8;" x="81" xlink:href="#m39419d05cb" y="204.641125"/>
      </g>
     </g>
     <g id="text_10">
      <!-- 0.12 -->
      <defs>
       <path d="M 4.59375 0 
L 47.09375 0 
L 47.09375 3.296875 
L 22.5 3.296875 
C 18.59375 3.296875 14.59375 3.09375 10.59375 2.796875 
C 31.59375 22.203125 43.5 37.59375 43.5 53.5 
C 43.5 65.796875 36.40625 73.90625 24.09375 73.90625 
C 15.59375 73.90625 9.5 69.296875 4.40625 63.59375 
L 6.90625 61.296875 
C 11.296875 66.796875 17.296875 70.59375 23.796875 70.59375 
C 34.90625 70.59375 39.703125 62.90625 39.703125 53.5 
C 39.703125 39.796875 30.40625 24.40625 4.59375 2.296875 
z
" id="NotoSansCJKjp-Thin-50"/>
      </defs>
      <g transform="translate(38.125 212.58175)scale(0.2 -0.2)">
       <use xlink:href="#NotoSansCJKjp-Thin-48"/>
       <use x="52.099991" xlink:href="#NotoSansCJKjp-Thin-46"/>
       <use x="75.199982" xlink:href="#NotoSansCJKjp-Thin-49"/>
       <use x="127.299973" xlink:href="#NotoSansCJKjp-Thin-50"/>
      </g>
     </g>
    </g>
    <g id="ytick_6">
     <g id="line2d_10">
      <g>
       <use style="stroke:#000000;stroke-width:0.8;" x="81" xlink:href="#m39419d05cb" y="154.13472"/>
      </g>
     </g>
     <g id="text_11">
      <!-- 0.13 -->
      <defs>
       <path d="M 25.296875 -1.296875 
C 37.296875 -1.296875 46.40625 6.59375 46.40625 19.09375 
C 46.40625 29.5 38.90625 36.296875 30.09375 38.09375 
L 30.09375 38.5 
C 37.796875 41 43.796875 47 43.796875 56.90625 
C 43.796875 67.703125 35.5 73.90625 25.09375 74 
C 16.90625 73.90625 11 70 6.40625 65.5 
L 8.703125 62.90625 
C 12.59375 67.203125 18.59375 70.59375 25.09375 70.796875 
C 34.09375 70.59375 39.90625 65 39.90625 56.703125 
C 39.90625 47.40625 34.09375 39.90625 17.40625 39.90625 
L 17.40625 36.40625 
C 35.203125 36.40625 42.59375 29.296875 42.59375 18.90625 
C 42.59375 8.703125 35.40625 2 25.5 2 
C 15.5 2 9.796875 6.59375 5.59375 11.203125 
L 3.296875 8.59375 
C 7.703125 4 14.09375 -1.296875 25.296875 -1.296875 
z
" id="NotoSansCJKjp-Thin-51"/>
      </defs>
      <g transform="translate(38.125 162.075345)scale(0.2 -0.2)">
       <use xlink:href="#NotoSansCJKjp-Thin-48"/>
       <use x="52.099991" xlink:href="#NotoSansCJKjp-Thin-46"/>
       <use x="75.199982" xlink:href="#NotoSansCJKjp-Thin-49"/>
       <use x="127.299973" xlink:href="#NotoSansCJKjp-Thin-51"/>
      </g>
     </g>
    </g>
    <g id="ytick_7">
     <g id="line2d_11">
      <g>
       <use style="stroke:#000000;stroke-width:0.8;" x="81" xlink:href="#m39419d05cb" y="103.628316"/>
      </g>
     </g>
     <g id="text_12">
      <!-- 0.14 -->
      <defs>
       <path d="M 6.59375 24.5 
L 28.59375 56.09375 
C 30.59375 59.296875 32.59375 62.59375 34.296875 65.703125 
L 34.796875 65.703125 
C 34.5 62.59375 34.296875 57.40625 34.296875 54.40625 
L 34.296875 24.5 
z
M 48.59375 24.5 
L 37.796875 24.5 
L 37.796875 72.59375 
L 35.296875 72.59375 
L 1.796875 23.203125 
L 1.796875 21.296875 
L 34.296875 21.296875 
L 34.296875 0 
L 37.796875 0 
L 37.796875 21.296875 
L 48.59375 21.296875 
z
" id="NotoSansCJKjp-Thin-52"/>
      </defs>
      <g transform="translate(38.125 111.568941)scale(0.2 -0.2)">
       <use xlink:href="#NotoSansCJKjp-Thin-48"/>
       <use x="52.099991" xlink:href="#NotoSansCJKjp-Thin-46"/>
       <use x="75.199982" xlink:href="#NotoSansCJKjp-Thin-49"/>
       <use x="127.299973" xlink:href="#NotoSansCJKjp-Thin-52"/>
      </g>
     </g>
    </g>
    <g id="text_13">
     <!-- MSE -->
     <defs>
      <path d="M 11 0 
L 14.5 0 
L 14.5 50.203125 
C 14.5 55.90625 14.296875 63.296875 14 69.203125 
L 14.40625 69.203125 
L 20.09375 53.203125 
L 36.5 8.09375 
L 40.40625 8.09375 
L 56.703125 53.203125 
L 62.296875 69.203125 
L 62.703125 69.203125 
C 62.5 63.296875 62.296875 55.90625 62.296875 50.203125 
L 62.296875 0 
L 66 0 
L 66 72.59375 
L 60.09375 72.59375 
L 44.5 28.796875 
C 42.59375 23.40625 40.796875 17.90625 38.796875 12.40625 
L 38.40625 12.40625 
C 36.40625 17.90625 34.40625 23.40625 32.40625 28.796875 
L 16.90625 72.59375 
L 11 72.59375 
z
" id="NotoSansCJKjp-Thin-77"/>
      <path d="M 29.5 -1.296875 
C 43.203125 -1.296875 52.203125 6.796875 52.203125 17.90625 
C 52.203125 29.09375 45 33.40625 36.796875 37.09375 
L 25.703125 42.09375 
C 20.59375 44.40625 13 47.703125 13 56.796875 
C 13 65 19.703125 70.40625 29.796875 70.40625 
C 37.203125 70.40625 43.09375 67.296875 47.296875 62.796875 
L 49.59375 65.296875 
C 45.40625 69.90625 38.59375 73.90625 29.796875 73.90625 
C 18 73.90625 9.203125 66.90625 9.203125 56.40625 
C 9.203125 45.703125 17.703125 41.40625 24 38.59375 
L 35.09375 33.59375 
C 42.40625 30.296875 48.5 27.296875 48.5 17.59375 
C 48.5 8.5 41.09375 2.203125 29.5 2.203125 
C 20.796875 2.203125 13.09375 6.09375 7.796875 12.296875 
L 5.296875 9.703125 
C 10.796875 3.296875 18.796875 -1.296875 29.5 -1.296875 
z
" id="NotoSansCJKjp-Thin-83"/>
     </defs>
     <g transform="translate(29.265625 269.750938)rotate(-90)scale(0.2 -0.2)">
      <use xlink:href="#NotoSansCJKjp-Thin-77"/>
      <use x="76.999985" xlink:href="#NotoSansCJKjp-Thin-83"/>
      <use x="133.899979" xlink:href="#NotoSansCJKjp-Thin-69"/>
     </g>
    </g>
   </g>
   <g id="line2d_12">
    <path clip-path="url(#p2149acd5fa)" d="M 103.827273 77.776364 
L 127.855981 149.463105 
L 151.884689 198.846614 
L 175.913397 235.748785 
L 199.942105 264.416039 
L 223.970813 287.445385 
L 247.999522 306.492364 
L 272.02823 322.674894 
L 296.056938 336.747612 
L 320.085646 349.201892 
L 344.114354 360.130757 
L 368.143062 369.829678 
L 392.17177 378.591269 
L 416.200478 386.639165 
L 440.229187 394.071883 
L 464.257895 400.938266 
L 488.286603 407.299652 
L 512.315311 413.223324 
L 536.344019 418.647755 
L 560.372727 423.703636 
" style="fill:none;stroke:#1f77b4;stroke-linecap:square;stroke-width:1.5;"/>
    <defs>
     <path d="M -3 3 
L 3 3 
L 3 -3 
L -3 -3 
z
" id="m525a83d402" style="stroke:#1f77b4;stroke-linejoin:miter;"/>
    </defs>
    <g clip-path="url(#p2149acd5fa)">
     <use style="fill:#1f77b4;stroke:#1f77b4;stroke-linejoin:miter;" x="103.827273" xlink:href="#m525a83d402" y="77.776364"/>
     <use style="fill:#1f77b4;stroke:#1f77b4;stroke-linejoin:miter;" x="127.855981" xlink:href="#m525a83d402" y="149.463105"/>
     <use style="fill:#1f77b4;stroke:#1f77b4;stroke-linejoin:miter;" x="151.884689" xlink:href="#m525a83d402" y="198.846614"/>
     <use style="fill:#1f77b4;stroke:#1f77b4;stroke-linejoin:miter;" x="175.913397" xlink:href="#m525a83d402" y="235.748785"/>
     <use style="fill:#1f77b4;stroke:#1f77b4;stroke-linejoin:miter;" x="199.942105" xlink:href="#m525a83d402" y="264.416039"/>
     <use style="fill:#1f77b4;stroke:#1f77b4;stroke-linejoin:miter;" x="223.970813" xlink:href="#m525a83d402" y="287.445385"/>
     <use style="fill:#1f77b4;stroke:#1f77b4;stroke-linejoin:miter;" x="247.999522" xlink:href="#m525a83d402" y="306.492364"/>
     <use style="fill:#1f77b4;stroke:#1f77b4;stroke-linejoin:miter;" x="272.02823" xlink:href="#m525a83d402" y="322.674894"/>
     <use style="fill:#1f77b4;stroke:#1f77b4;stroke-linejoin:miter;" x="296.056938" xlink:href="#m525a83d402" y="336.747612"/>
     <use style="fill:#1f77b4;stroke:#1f77b4;stroke-linejoin:miter;" x="320.085646" xlink:href="#m525a83d402" y="349.201892"/>
     <use style="fill:#1f77b4;stroke:#1f77b4;stroke-linejoin:miter;" x="344.114354" xlink:href="#m525a83d402" y="360.130757"/>
     <use style="fill:#1f77b4;stroke:#1f77b4;stroke-linejoin:miter;" x="368.143062" xlink:href="#m525a83d402" y="369.829678"/>
     <use style="fill:#1f77b4;stroke:#1f77b4;stroke-linejoin:miter;" x="392.17177" xlink:href="#m525a83d402" y="378.591269"/>
     <use style="fill:#1f77b4;stroke:#1f77b4;stroke-linejoin:miter;" x="416.200478" xlink:href="#m525a83d402" y="386.639165"/>
     <use style="fill:#1f77b4;stroke:#1f77b4;stroke-linejoin:miter;" x="440.229187" xlink:href="#m525a83d402" y="394.071883"/>
     <use style="fill:#1f77b4;stroke:#1f77b4;stroke-linejoin:miter;" x="464.257895" xlink:href="#m525a83d402" y="400.938266"/>
     <use style="fill:#1f77b4;stroke:#1f77b4;stroke-linejoin:miter;" x="488.286603" xlink:href="#m525a83d402" y="407.299652"/>
     <use style="fill:#1f77b4;stroke:#1f77b4;stroke-linejoin:miter;" x="512.315311" xlink:href="#m525a83d402" y="413.223324"/>
     <use style="fill:#1f77b4;stroke:#1f77b4;stroke-linejoin:miter;" x="536.344019" xlink:href="#m525a83d402" y="418.647755"/>
     <use style="fill:#1f77b4;stroke:#1f77b4;stroke-linejoin:miter;" x="560.372727" xlink:href="#m525a83d402" y="423.703636"/>
    </g>
   </g>
   <g id="patch_3">
    <path d="M 81 441 
L 81 60.48 
" style="fill:none;stroke:#000000;stroke-linecap:square;stroke-linejoin:miter;stroke-width:0.8;"/>
   </g>
   <g id="patch_4">
    <path d="M 583.2 441 
L 583.2 60.48 
" style="fill:none;stroke:#000000;stroke-linecap:square;stroke-linejoin:miter;stroke-width:0.8;"/>
   </g>
   <g id="patch_5">
    <path d="M 81 441 
L 583.2 441 
" style="fill:none;stroke:#000000;stroke-linecap:square;stroke-linejoin:miter;stroke-width:0.8;"/>
   </g>
   <g id="patch_6">
    <path d="M 81 60.48 
L 583.2 60.48 
" style="fill:none;stroke:#000000;stroke-linecap:square;stroke-linejoin:miter;stroke-width:0.8;"/>
   </g>
   <g id="legend_1">
    <g id="patch_7">
     <path d="M 465.2 107.220625 
L 569.2 107.220625 
Q 573.2 107.220625 573.2 103.220625 
L 573.2 74.48 
Q 573.2 70.48 569.2 70.48 
L 465.2 70.48 
Q 461.2 70.48 461.2 74.48 
L 461.2 103.220625 
Q 461.2 107.220625 465.2 107.220625 
z
" style="fill:#ffffff;opacity:0.8;stroke:#cccccc;stroke-linejoin:miter;"/>
    </g>
    <g id="line2d_13">
     <path d="M 469.2 87.36125 
L 509.2 87.36125 
" style="fill:none;stroke:#1f77b4;stroke-linecap:square;stroke-width:1.5;"/>
    </g>
    <g id="line2d_14">
     <g>
      <use style="fill:#1f77b4;stroke:#1f77b4;stroke-linejoin:miter;" x="489.2" xlink:href="#m525a83d402" y="87.36125"/>
     </g>
    </g>
    <g id="text_14">
     <!-- шонч╗Г -->
     <defs>
      <path d="M 30.40625 63.09375 
C 27 67.59375 20 74.5 14.09375 79.59375 
L 12 77.703125 
C 17.90625 72.59375 24.796875 65.296875 28.203125 60.796875 
z
M 24.40625 5.203125 
L 24.40625 50.90625 
L 4.90625 50.90625 
L 4.90625 48 
L 21.5 48 
L 21.5 7.09375 
C 21.5 2.703125 18.203125 -0.203125 16.796875 -1.203125 
C 17.5 -1.90625 18.5 -3.09375 19 -3.703125 
L 19 -3.59375 
C 20.09375 -2 22.09375 -0.40625 37.5 11.59375 
C 37.09375 12.09375 36.59375 13.203125 36.203125 14 
z
M 44.796875 45.59375 
C 44.796875 27.40625 43.703125 9.796875 34.296875 -5.09375 
C 35.09375 -5.5 36.203125 -6.40625 36.59375 -7.09375 
C 46.5 8.40625 47.703125 26.40625 47.703125 45.59375 
L 47.703125 80.203125 
L 44.796875 80.203125 
z
M 66.5 5.203125 
L 69.40625 5.203125 
L 69.40625 75.703125 
L 66.5 75.703125 
z
M 88.09375 80.40625 
L 88.09375 -5.59375 
L 91 -5.59375 
L 91 80.40625 
z
" id="NotoSansCJKjp-Thin-35757"/>
      <path d="M 7.40625 19.40625 
C 8.796875 20.203125 11.40625 20.90625 34.703125 25.90625 
C 34.59375 26.59375 34.5 27.796875 34.5 28.703125 
L 12.40625 24.296875 
C 20.09375 33.90625 27.703125 46.703125 34.203125 59.40625 
L 31.296875 60.796875 
C 29.5 57 27.59375 53.09375 25.40625 49.296875 
L 10.90625 47.5 
C 16.796875 56.796875 22.5 69.203125 26.90625 81.296875 
L 23.90625 82.5 
C 20 70 12.90625 56.40625 10.796875 53 
C 8.703125 49.296875 7.203125 46.703125 5.703125 46.40625 
C 6.09375 45.5 6.59375 43.90625 6.796875 43.203125 
C 8 43.796875 10 44.203125 23.703125 46.296875 
C 19.09375 38.296875 14.5 31.796875 12.796875 29.5 
C 10.09375 25.703125 8 23 6.296875 22.703125 
C 6.703125 21.796875 7.203125 20.203125 7.40625 19.40625 
z
M 34.59375 13.90625 
C 23.703125 10 13.09375 6.09375 5.796875 3.703125 
L 6.703125 0.796875 
C 14.40625 3.703125 24.796875 7.40625 35 11.09375 
z
M 48.40625 24 
C 45.296875 16.203125 39.296875 6.703125 33.203125 0.40625 
C 33.90625 -0.09375 35 -0.90625 35.5 -1.5 
C 41.703125 5.09375 47.796875 14.90625 51.5 23.09375 
z
M 44.09375 35.09375 
C 46.703125 40.09375 49.09375 45.796875 51.40625 51.796875 
L 64.5 51.796875 
L 64.5 35.09375 
z
M 90.203125 32.203125 
L 90.203125 35.09375 
L 67.40625 35.09375 
L 67.40625 54.703125 
L 52.40625 54.703125 
C 53.90625 58.703125 55.296875 62.90625 56.703125 67 
L 93 67 
L 93 69.90625 
L 57.5 69.90625 
C 58.796875 74 60 78.203125 61.09375 82.296875 
L 57.90625 83.40625 
C 57 78.90625 55.703125 74.296875 54.296875 69.90625 
L 34.703125 69.90625 
L 34.703125 67 
L 53.40625 67 
C 52 62.59375 50.5 58.296875 49.203125 54.703125 
L 36.5 54.703125 
L 36.5 51.796875 
L 48 51.796875 
C 46.59375 48 45.296875 45 44.59375 43.5 
C 42.5 38.40625 40.703125 34.5 39.203125 34.203125 
C 39.703125 33.40625 40.203125 31.703125 40.40625 30.90625 
C 41.296875 31.703125 43.59375 32.203125 48.703125 32.203125 
L 64.5 32.203125 
L 64.5 -2.203125 
C 64.5 -3.59375 64.09375 -4 62.59375 -4.09375 
C 61.09375 -4.203125 56.203125 -4.296875 50 -4.09375 
C 50.5 -5.09375 51.09375 -6.203125 51.296875 -7.09375 
C 58.203125 -7.09375 62.40625 -7.09375 64.59375 -6.5 
C 66.59375 -5.90625 67.40625 -4.90625 67.40625 -2.09375 
L 67.40625 32.203125 
z
M 78.5 23 
C 83.59375 15.40625 89.59375 5.203125 92.59375 -0.59375 
L 95.296875 0.796875 
C 92.296875 6.5 86.203125 16.59375 81.09375 24.09375 
z
" id="NotoSansCJKjp-Thin-32451"/>
     </defs>
     <g transform="translate(525.2 94.36125)scale(0.2 -0.2)">
      <use xlink:href="#NotoSansCJKjp-Thin-35757"/>
      <use x="99.999985" xlink:href="#NotoSansCJKjp-Thin-32451"/>
     </g>
    </g>
   </g>
  </g>
 </g>
 <defs>
  <clipPath id="p2149acd5fa">
   <rect height="380.52" width="502.2" x="81" y="60.48"/>
  </clipPath>
 </defs>
</svg>
